<svg xmlns="http://www.w3.org/2000/svg" viewBox="0 0 128 128" role="img" aria-label="VibeLab logo">
  <defs>
    <linearGradient id="vl-tile" x1="18" y1="12" x2="112" y2="118" gradientUnits="userSpaceOnUse">
      <stop offset="0" stop-color="#ffffff"/>
      <stop offset="0.34" stop-color="#effcff"/>
      <stop offset="0.68" stop-color="#d8ddff"/>
      <stop offset="1" stop-color="#a998ff"/>
    </linearGradient>
    <radialGradient id="vl-glow" cx="35" cy="22" r="82" gradientUnits="userSpaceOnUse">
      <stop offset="0" stop-color="#ffffff" stop-opacity="0.95"/>
      <stop offset="0.36" stop-color="#7dd3fc" stop-opacity="0.22"/>
      <stop offset="1" stop-color="#8b5cf6" stop-opacity="0"/>
    </radialGradient>
    <linearGradient id="vl-stroke" x1="42" y1="22" x2="88" y2="106" gradientUnits="userSpaceOnUse">
      <stop offset="0" stop-color="#172554"/>
      <stop offset="0.55" stop-color="#312e81"/>
      <stop offset="1" stop-color="#083344"/>
    </linearGradient>
    <linearGradient id="vl-liquid" x1="38" y1="74" x2="90" y2="104" gradientUnits="userSpaceOnUse">
      <stop offset="0" stop-color="#22d3ee"/>
      <stop offset="0.52" stop-color="#38bdf8"/>
      <stop offset="1" stop-color="#8b5cf6"/>
    </linearGradient>
    <filter id="vl-shadow" x="-25%" y="-25%" width="150%" height="150%">
      <feDropShadow dx="0" dy="10" stdDeviation="10" flood-color="#06101f" flood-opacity="0.22"/>
      <feDropShadow dx="0" dy="0" stdDeviation="5" flood-color="#22d3ee" flood-opacity="0.28"/>
    </filter>
  </defs>

  <rect x="9" y="9" width="110" height="110" rx="32" fill="url(#vl-tile)"/>
  <rect x="9" y="9" width="110" height="110" rx="32" fill="url(#vl-glow)"/>
  <rect x="11.5" y="11.5" width="105" height="105" rx="30" fill="none" stroke="#ffffff" stroke-opacity="0.72" stroke-width="3"/>

  <g filter="url(#vl-shadow)">
    <path d="M49 23.5h30" fill="none" stroke="url(#vl-stroke)" stroke-width="7.5" stroke-linecap="round"/>
    <path d="M55 23.5v21.2L35.4 83.9C29.6 95.4 38 109 50.9 109h26.2c12.9 0 21.3-13.6 15.5-25.1L73 44.7V23.5" fill="none" stroke="url(#vl-stroke)" stroke-width="7.5" stroke-linecap="round" stroke-linejoin="round"/>
    <path d="M43.5 84.5c8.5 4.7 14.1-3.1 24.1.7 6.6 2.5 11.5 2.4 16.9-0.7l4.3 8.7c2.8 5.6-1.3 12.2-7.6 12.2H46.8c-6.3 0-10.4-6.6-7.6-12.2l4.3-8.7Z" fill="url(#vl-liquid)" opacity="0.96"/>
    <path d="M43.5 84.5c8.5 4.7 14.1-3.1 24.1.7 6.6 2.5 11.5 2.4 16.9-0.7" fill="none" stroke="#e0fbff" stroke-opacity="0.78" stroke-width="3.2" stroke-linecap="round"/>
    <circle cx="78" cy="66" r="5.5" fill="#ffffff" fill-opacity="0.9"/>
    <circle cx="58" cy="76" r="4.2" fill="#ffffff" fill-opacity="0.72"/>
    <circle cx="68" cy="95" r="3.2" fill="#ffffff" fill-opacity="0.75"/>
  </g>

  <path d="M28 24c13-10 42-11 62-2" fill="none" stroke="#ffffff" stroke-opacity="0.35" stroke-width="4" stroke-linecap="round"/>
</svg>
